<?xml version="1.0" standalone="no"?>
<!DOCTYPE svg PUBLIC "-//W3C//DTD SVG 20010904//EN"
 "http://www.w3.org/TR/2001/REC-SVG-20010904/DTD/svg10.dtd">
<svg version="1.0" xmlns="http://www.w3.org/2000/svg"
 width="300.000000pt" height="300.000000pt" viewBox="0 0 300.000000 300.000000"
 preserveAspectRatio="xMidYMid meet">
<metadata>
Created by potrace 1.14, written by Peter Selinger 2001-2017
</metadata>
<g transform="translate(0.000000,300.000000) scale(0.100000,-0.100000)"
fill="#000000" stroke="none">
<path d="M987 2844 c3 -28 1 -59 -5 -69 -7 -14 -4 -27 12 -54 18 -31 21 -53
22 -156 2 -132 -4 -215 -15 -215 -15 0 -43 108 -43 168 0 21 -4 42 -8 47 -5 6
-10 24 -13 40 -3 17 -5 1 -4 -35 0 -92 46 -260 71 -260 7 0 12 -24 13 -61 1
-34 4 -63 6 -65 2 -3 16 0 31 5 28 11 80 -4 70 -20 -3 -5 2 -6 10 -3 22 8 20
19 -6 31 -17 7 -18 11 -7 15 8 3 28 -5 44 -18 l29 -23 -30 -13 c-34 -14 -34
-32 -1 -49 12 -7 19 -8 15 -4 -4 5 6 18 22 30 24 18 27 24 17 36 -7 7 -2 5 11
-5 27 -23 27 -30 1 -67 -19 -27 -46 -32 -33 -6 3 7 -2 3 -11 -8 -9 -11 -19
-19 -23 -19 -21 4 -81 -38 -153 -109 -66 -64 -136 -185 -154 -265 -3 -18 -12
-32 -20 -32 -21 0 -23 -35 -5 -73 10 -21 14 -37 8 -37 -11 0 -9 -106 4 -165 5
-22 19 -48 31 -57 19 -16 20 -18 4 -18 -12 0 -16 -4 -10 -12 4 -7 8 -19 9 -25
5 -31 78 -143 129 -198 50 -53 56 -64 55 -100 -3 -81 -1 -95 18 -95 9 0 34 -5
55 -11 31 -8 37 -14 37 -37 0 -40 25 -125 45 -156 10 -15 31 -34 48 -43 20
-10 26 -17 18 -22 -8 -5 -10 -18 -5 -35 4 -16 1 -32 -7 -42 -11 -14 -10 -18 5
-30 12 -9 17 -20 13 -35 -6 -22 14 -61 45 -89 11 -11 18 -40 22 -105 3 -50 8
-103 11 -120 3 -16 10 -58 16 -92 l11 -63 89 0 88 0 10 38 c5 20 13 57 16 82
3 25 8 58 11 74 3 16 7 65 9 110 2 44 8 95 13 111 5 17 6 40 1 52 -5 13 -4 25
1 28 15 9 12 37 -7 57 -17 19 -16 20 7 38 23 17 23 20 11 58 -13 38 -12 41 23
93 20 30 36 58 36 64 0 6 13 16 30 22 27 10 42 6 152 -43 68 -30 130 -58 138
-63 31 -16 221 -73 227 -68 3 4 -7 21 -23 39 -20 23 -61 47 -134 78 -293 123
-341 154 -288 190 55 37 123 99 120 109 -1 7 1 10 6 7 13 -8 55 40 47 53 -3 6
1 11 9 11 13 0 15 8 10 35 -3 23 -1 35 6 35 7 0 10 -7 6 -15 -3 -9 0 -15 7
-15 19 0 69 118 86 202 19 94 14 245 -10 289 -5 10 -9 29 -9 43 0 25 -24 46
-52 46 -10 0 -10 -2 1 -9 9 -6 10 -11 2 -15 -6 -4 -13 4 -17 19 -3 14 -10 25
-15 25 -5 0 -9 7 -9 16 0 8 4 13 8 10 4 -2 13 4 20 15 10 16 10 20 -2 25 -8 3
-20 3 -26 -1 -5 -3 -25 8 -42 26 -31 30 -31 33 -13 40 13 5 15 8 5 8 -12 1
-12 3 -2 10 11 6 8 14 -11 35 -13 14 -31 26 -39 26 -10 0 -15 8 -14 23 1 12
-2 32 -7 44 -5 12 -6 30 -2 40 12 26 14 53 4 53 -5 0 -9 8 -9 18 -1 38 -39 65
-110 77 -28 5 -51 16 -62 30 -16 21 -122 91 -235 156 -23 13 -52 40 -65 59
-39 57 -94 90 -161 93 -37 2 -62 9 -68 18 -7 11 -9 10 -9 -7 0 -11 -16 -36
-36 -55 -20 -18 -44 -51 -54 -73 -18 -39 -18 -39 -13 106 5 131 4 151 -16 209
-12 35 -28 75 -36 89 -13 23 -14 22 -8 -26z m317 -374 l19 -35 -26 24 c-14 13
-31 37 -37 54 -10 30 -10 31 7 11 10 -11 27 -35 37 -54z m-118 15 c7 -37 7
-36 5 -72 -1 -20 -6 -33 -14 -33 -10 0 -14 17 -14 63 -1 82 12 105 23 42z
m-89 -57 c-3 -8 -6 -5 -6 6 -1 11 2 17 5 13 3 -3 4 -12 1 -19z m188 -120 c4
-10 11 -18 16 -18 5 0 9 -6 9 -14 0 -7 7 -19 15 -26 8 -7 15 -19 15 -26 0 -19
-47 -29 -65 -14 -13 11 -12 14 3 29 10 9 13 13 8 9 -18 -14 -34 -8 -41 15 -12
37 -11 42 10 55 19 13 15 13 -32 -2 -13 -4 -23 -3 -23 3 0 5 -2 16 -5 23 -4 9
3 19 17 25 20 9 26 7 45 -16 12 -14 25 -34 28 -43z m-220 -30 c2 -29 -1 -60
-6 -68 -7 -11 -9 -6 -7 20 1 19 -1 40 -4 45 -7 11 2 69 9 61 2 -2 6 -28 8 -58z
m345 -22 c0 -5 -10 4 -22 20 -33 44 -36 53 -6 19 15 -16 28 -34 28 -39z m-225
-12 c14 -21 15 -28 4 -35 -19 -12 -29 -1 -29 32 0 36 3 36 25 3z m35 -43 c0
-12 -20 -25 -27 -18 -7 7 6 27 18 27 5 0 9 -4 9 -9z m-10 -40 c0 -15 -42 -41
-53 -34 -5 3 1 14 14 24 27 21 39 24 39 10z m83 -186 l5 -40 -13 30 -14 30 -2
-30 c-1 -23 -3 -25 -6 -8 -4 19 14 70 21 61 2 -1 6 -21 9 -43z m-66 -62 c0 -9
-4 -10 -14 -2 -7 6 -13 12 -13 14 0 1 6 2 13 2 8 0 14 -6 14 -14z m-20 -35
c-3 -8 -6 -5 -6 6 -1 11 2 17 5 13 3 -3 4 -12 1 -19z m680 -33 c-5 -12 -2 -12
19 -3 13 6 27 8 32 3 4 -4 1 -10 -6 -12 -10 -4 -10 -8 -1 -19 8 -10 15 -11 24
-4 16 13 28 -12 18 -36 -5 -15 -8 -15 -17 -2 -15 20 -54 40 -66 33 -5 -3 -11
-1 -15 5 -7 11 3 50 12 50 3 0 3 -7 0 -15z m-937 -25 c0 -5 -5 -10 -11 -10 -5
0 -7 5 -4 10 3 6 8 10 11 10 2 0 4 -4 4 -10z m50 -25 c7 -9 8 -15 2 -15 -5 0
-12 7 -16 15 -3 8 -4 15 -2 15 2 0 9 -7 16 -15z m130 -4 c0 -5 -7 -11 -15 -15
-9 -3 -15 0 -15 9 0 8 7 15 15 15 8 0 15 -4 15 -9z m727 3 c-3 -3 -12 -4 -19
-1 -8 3 -5 6 6 6 11 1 17 -2 13 -5z m50 -20 c-3 -3 -12 -4 -19 -1 -8 3 -5 6 6
6 11 1 17 -2 13 -5z m-697 -30 c0 -8 -5 -12 -10 -9 -6 4 -8 11 -5 16 9 14 15
11 15 -7z m833 -17 c26 5 30 3 20 -7 -9 -10 -10 -17 -2 -27 16 -18 1 -17 -17
2 -9 8 -25 15 -36 15 -20 0 -21 -1 -3 -20 22 -24 13 -27 -10 -4 -12 12 -13 19
-4 30 9 11 8 15 -5 20 -9 3 -13 10 -10 16 3 5 13 0 20 -11 12 -16 22 -19 47
-14z m-410 -22 c-3 -9 -8 -14 -10 -11 -3 3 -2 9 2 15 9 16 15 13 8 -4z m-426
-42 c-3 -10 -5 -2 -5 17 0 19 2 27 5 18 2 -10 2 -26 0 -35z m608 37 c3 -6 -1
-7 -9 -4 -18 7 -21 14 -7 14 6 0 13 -4 16 -10z m-670 -20 c3 -5 1 -10 -4 -10
-6 0 -11 5 -11 10 0 6 2 10 4 10 3 0 8 -4 11 -10z m285 -20 c0 -5 -5 -10 -11
-10 -5 0 -7 5 -4 10 3 6 8 10 11 10 2 0 4 -4 4 -10z m660 -10 c0 -13 -11 -13
-30 0 -12 8 -11 10 8 10 12 0 22 -4 22 -10z m-73 -50 c-1 -8 4 -14 11 -12 8 1
11 -2 7 -8 -3 -5 1 -10 9 -10 9 0 16 -7 16 -17 0 -14 -2 -14 -20 2 -11 10 -20
15 -20 11 0 -4 -7 -1 -15 8 -8 8 -15 19 -15 24 0 6 -5 12 -12 14 -6 2 -8 9 -4
16 10 16 47 -7 43 -28z m-807 -2 c0 -36 -9 -33 -16 6 -2 14 0 26 6 26 5 0 10
-14 10 -32z m135 -94 c-27 -26 -77 -72 -110 -103 -33 -30 -15 -10 40 47 55 56
105 102 110 102 6 0 -12 -21 -40 -46z m-115 21 c0 -8 -4 -15 -10 -15 -5 0 -7
7 -4 15 4 8 8 15 10 15 2 0 4 -7 4 -15z m27 -7 c-3 -8 -6 -5 -6 6 -1 11 2 17
5 13 3 -3 4 -12 1 -19z m753 4 c0 -5 -7 -9 -15 -9 -8 0 -12 4 -9 9 3 4 9 8 15
8 5 0 9 -4 9 -8z m-990 -22 c0 -5 -9 -6 -20 -3 -11 3 -20 9 -20 13 0 5 9 6 20
3 11 -3 20 -9 20 -13z m675 -20 c-3 -5 -12 -10 -18 -10 -7 0 -6 4 3 10 19 12
23 12 15 0z m320 0 c3 -6 -1 -7 -9 -4 -18 7 -21 14 -7 14 6 0 13 -4 16 -10z
m-167 -19 c11 -7 11 -9 -1 -14 -9 -3 -18 1 -21 9 -6 16 2 18 22 5z m94 -30 c3
9 6 7 11 -4 4 -10 2 -17 -6 -17 -18 1 -48 26 -40 34 4 4 13 0 19 -9 9 -12 13
-13 16 -4z m-993 -38 c10 -10 26 -30 36 -45 15 -24 15 -28 2 -28 -8 0 -20 7
-27 15 -7 9 -18 14 -25 11 -7 -2 -12 8 -12 30 0 39 2 40 26 17z m916 -3 c10
-11 16 -20 13 -20 -3 0 -13 9 -23 20 -10 11 -16 20 -13 20 3 0 13 -9 23 -20z
m65 -35 c17 -20 31 -19 23 2 -4 11 -3 14 5 9 14 -9 16 -42 3 -50 -15 -10 -38
4 -49 30 -13 27 -1 32 18 9z m-393 -17 c-3 -8 -6 -5 -6 6 -1 11 2 17 5 13 3
-3 4 -12 1 -19z m373 -18 c0 -6 -9 -5 -20 2 -11 7 -20 16 -20 21 0 4 9 3 20
-3 11 -6 20 -15 20 -20z m-52 -2 c15 -15 16 -28 2 -28 -5 0 -9 5 -7 12 1 6 -9
15 -23 19 -21 6 -22 7 -4 8 11 1 25 -4 32 -11z m-23 -29 c11 -16 1 -19 -13 -3
-7 8 -8 14 -3 14 5 0 13 -5 16 -11z m-10 -29 c3 -5 2 -10 -4 -10 -5 0 -13 5
-16 10 -3 6 -2 10 4 10 5 0 13 -4 16 -10z m161 -38 c-5 -4 -46 35 -46 45 0 3
11 -4 25 -17 14 -13 23 -25 21 -28z m-426 21 c0 -10 7 -31 16 -48 14 -27 14
-29 -1 -15 -19 19 -38 80 -24 80 5 0 9 -8 9 -17z m165 -13 c-6 -10 9 -15 30
-10 6 1 6 -2 2 -6 -4 -4 3 -14 15 -21 17 -9 19 -12 6 -13 -9 0 -19 -6 -22 -12
-3 -7 -4 -4 -3 7 1 14 -3 19 -15 17 -9 -1 -19 2 -23 8 -7 12 0 40 10 40 4 0 3
-4 0 -10z m-35 -48 c0 -5 -7 -9 -15 -9 -8 0 -12 4 -9 9 3 4 9 8 15 8 5 0 9 -4
9 -8z m-630 -47 c5 3 11 1 15 -5 4 -6 -6 -10 -25 -10 -26 0 -29 2 -18 14 7 8
15 10 16 5 2 -5 8 -7 12 -4z m529 -29 c5 -22 6 -35 2 -30 -9 9 -27 83 -18 74
3 -3 10 -23 16 -44z m-589 18 c0 -2 -7 -4 -15 -4 -8 0 -15 4 -15 10 0 5 7 7
15 4 8 -4 15 -8 15 -10z m104 -23 c-4 -17 -9 -30 -11 -27 -3 2 -2 19 2 36 4
17 9 30 11 27 2 -2 1 -18 -2 -36z m774 14 c-3 -3 -9 2 -12 12 -6 14 -5 15 5 6
7 -7 10 -15 7 -18z m33 -2 c13 -16 12 -17 -3 -4 -17 13 -22 21 -14 21 2 0 10
-8 17 -17z m-210 -66 c-10 -9 -11 -8 -5 6 3 10 9 15 12 12 3 -3 0 -11 -7 -18z
m-565 1 c3 -4 -1 -5 -10 -4 -8 1 -18 5 -22 8 -3 4 1 5 10 4 8 -1 18 -5 22 -8z
m34 -8 c0 -5 -5 -10 -11 -10 -5 0 -7 5 -4 10 3 6 8 10 11 10 2 0 4 -4 4 -10z
m-89 -65 c-6 -35 -9 -41 -10 -20 -1 30 9 78 15 73 2 -2 -1 -26 -5 -53z m539
34 c0 -11 -4 -17 -10 -14 -5 3 -10 13 -10 21 0 8 5 14 10 14 6 0 10 -9 10 -21z
m-469 -46 c-12 -20 -14 -14 -5 12 4 9 9 14 11 11 3 -2 0 -13 -6 -23z"/>
</g>
</svg>
